<svg width="640" height="480" viewBox="0 0 640 480" xmlns="http://www.w3.org/2000/svg">
  <defs>
    <linearGradient id="bg-brochure-2" x1="0%" y1="0%" x2="100%" y2="0%">
      <stop offset="0%" stop-color="#040b1f"/>
      <stop offset="100%" stop-color="#11275e"/>
    </linearGradient>
    <linearGradient id="stand-2" x1="0%" y1="0%" x2="0%" y2="100%">
      <stop offset="0%" stop-color="#ff8af5"/>
      <stop offset="100%" stop-color="#6b5bff"/>
    </linearGradient>
    <linearGradient id="pocket-2" x1="0%" y1="0%" x2="100%" y2="100%">
      <stop offset="0%" stop-color="#0f2248"/>
      <stop offset="100%" stop-color="#17376d"/>
    </linearGradient>
  </defs>
  <rect width="640" height="480" fill="url(#bg-brochure-2)"/>
  <ellipse cx="320" cy="420" rx="220" ry="50" fill="#01050f" opacity="0.7"/>
  <g transform="translate(260,70)" stroke-linecap="round">
    <rect x="50" y="20" width="30" height="340" rx="10" fill="url(#stand-2)"/>
    <path d="M65 0 L95 30 L65 60 L35 30 Z" fill="#fff" opacity="0.1"/>
    <rect x="10" y="350" width="110" height="25" rx="12" fill="#070f2b" stroke="#ff8af5" stroke-width="2"/>
    <g>
      <rect x="-50" y="40" width="220" height="48" rx="15" fill="url(#pocket-2)" stroke="#6b5bff" stroke-width="2"/>
      <rect x="-50" y="110" width="220" height="48" rx="15" fill="url(#pocket-2)" stroke="#6b5bff" stroke-width="2"/>
      <rect x="-50" y="180" width="220" height="48" rx="15" fill="url(#pocket-2)" stroke="#6b5bff" stroke-width="2"/>
      <rect x="-50" y="250" width="220" height="48" rx="15" fill="url(#pocket-2)" stroke="#6b5bff" stroke-width="2"/>
    </g>
    <g stroke="#ff8af5" opacity="0.6">
      <line x1="-20" y1="60" x2="-20" y2="80"/>
      <line x1="0" y1="60" x2="0" y2="80"/>
      <line x1="20" y1="60" x2="20" y2="80"/>
      <line x1="40" y1="60" x2="40" y2="80"/>
    </g>
  </g>
  <g fill="#6b5bff">
    <circle cx="520" cy="100" r="4"/>
    <circle cx="140" cy="70" r="3"/>
    <circle cx="500" cy="320" r="2"/>
  </g>
</svg>
