<svg width="640" height="480" viewBox="0 0 640 480" xmlns="http://www.w3.org/2000/svg">
  <defs>
    <linearGradient id="bg-tray-2" x1="0%" y1="100%" x2="100%" y2="0%">
      <stop offset="0%" stop-color="#020c1b"/>
      <stop offset="100%" stop-color="#1c0f3a"/>
    </linearGradient>
    <linearGradient id="tray-base-2" x1="0%" y1="0%" x2="100%" y2="100%">
      <stop offset="0%" stop-color="#ffd3a5"/>
      <stop offset="100%" stop-color="#fd6585"/>
    </linearGradient>
    <linearGradient id="tray-surface-2" x1="0%" y1="0%" x2="100%" y2="0%">
      <stop offset="0%" stop-color="#ffffff" stop-opacity="0.7"/>
      <stop offset="100%" stop-color="#ffe6c7" stop-opacity="0.9"/>
    </linearGradient>
  </defs>
  <rect width="640" height="480" fill="url(#bg-tray-2)"/>
  <ellipse cx="320" cy="390" rx="210" ry="40" fill="#050913" opacity="0.7"/>
  <g transform="translate(130,150)">
    <path d="M0 110 L70 40 L340 40 L410 110 L410 170 L0 170 Z" fill="#0d1b2b" stroke="#ffd3a5" stroke-width="3"/>
    <rect x="20" y="70" width="370" height="80" rx="35" fill="url(#tray-surface-2)"/>
    <rect x="50" y="85" width="310" height="50" rx="22" fill="#fff4e6" opacity="0.4"/>
    <g fill="#ffd3a5">
      <rect x="-15" y="85" width="35" height="60" rx="16"/>
      <rect x="390" y="85" width="35" height="60" rx="16"/>
    </g>
    <g>
      <rect x="90" y="20" width="70" height="60" rx="16" fill="#ffe3c6" opacity="0.4" stroke="#ffd3a5" stroke-width="2"/>
      <circle cx="220" cy="50" r="32" fill="#ffe3c6" opacity="0.35" stroke="#fd6585" stroke-width="3"/>
      <rect x="300" y="26" width="50" height="50" rx="12" fill="#ffe3c6" opacity="0.25"/>
    </g>
  </g>
  <g fill="#ffd3a5" opacity="0.8">
    <circle cx="130" cy="120" r="3"/>
    <circle cx="510" cy="80" r="4"/>
    <circle cx="520" cy="260" r="2"/>
  </g>
</svg>
