<svg width="640" height="480" viewBox="0 0 640 480" xmlns="http://www.w3.org/2000/svg">
  <defs>
    <linearGradient id="bg2" x1="0%" y1="0%" x2="100%" y2="100%">
      <stop offset="0%" stop-color="#01080f"/>
      <stop offset="100%" stop-color="#041b35"/>
    </linearGradient>
    <linearGradient id="neon" x1="0%" y1="0%" x2="100%" y2="0%">
      <stop offset="0%" stop-color="#ed3ef7"/>
      <stop offset="50%" stop-color="#7f6bff"/>
      <stop offset="100%" stop-color="#35d1ff"/>
    </linearGradient>
    <linearGradient id="panel" x1="0%" y1="0%" x2="0%" y2="100%">
      <stop offset="0%" stop-color="#0f1e43"/>
      <stop offset="100%" stop-color="#040912"/>
    </linearGradient>
    <filter id="blurGlow" x="-40%" y="-40%" width="180%" height="180%">
      <feGaussianBlur stdDeviation="14"/>
    </filter>
  </defs>
  <rect width="640" height="480" fill="url(#bg2)"/>
  <g opacity="0.45">
    <rect x="100" y="40" width="440" height="220" rx="30" fill="url(#neon)" filter="url(#blurGlow)"/>
  </g>
  <g transform="translate(0,30)">
    <path d="M200 140 L320 80 L440 140 L440 330 L200 330 Z" fill="url(#panel)" stroke="#1f82ff" stroke-width="2"/>
    <rect x="240" y="180" width="160" height="120" rx="10" fill="#07122a" stroke="#36f3ff" stroke-width="3"/>
    <rect x="260" y="200" width="120" height="12" rx="6" fill="#36f3ff"/>
    <rect x="260" y="236" width="120" height="12" rx="6" fill="#36f3ff" opacity="0.6"/>
    <rect x="260" y="272" width="120" height="12" rx="6" fill="#36f3ff" opacity="0.4"/>
    <rect x="300" y="120" width="40" height="50" rx="8" fill="#09193a" stroke="#f735b9" stroke-width="3"/>
    <circle cx="320" cy="110" r="26" fill="none" stroke="#35d1ff" stroke-width="4" stroke-dasharray="8 12"/>
  </g>
  <g fill="#35d1ff" opacity="0.7">
    <circle cx="80" cy="90" r="3"/>
    <circle cx="560" cy="110" r="3"/>
    <circle cx="520" cy="360" r="2"/>
    <circle cx="120" cy="360" r="4"/>
  </g>
</svg>
