<svg width="640" height="480" viewBox="0 0 640 480" xmlns="http://www.w3.org/2000/svg">
  <defs>
    <linearGradient id="bg3" x1="0%" y1="0%" x2="0%" y2="100%">
      <stop offset="0%" stop-color="#03001e"/>
      <stop offset="100%" stop-color="#1a1a40"/>
    </linearGradient>
    <linearGradient id="podiumCore" x1="0%" y1="0%" x2="0%" y2="100%">
      <stop offset="0%" stop-color="#ffecd2"/>
      <stop offset="100%" stop-color="#fc5c7d"/>
    </linearGradient>
    <linearGradient id="podiumGlow" x1="0%" y1="0%" x2="100%" y2="0%">
      <stop offset="0%" stop-color="#43cea2"/>
      <stop offset="100%" stop-color="#185a9d"/>
    </linearGradient>
    <filter id="shadow" x="-20%" y="-20%" width="140%" height="150%">
      <feDropShadow dx="0" dy="18" stdDeviation="20" flood-color="#000" flood-opacity="0.4"/>
    </filter>
  </defs>
  <rect width="640" height="480" fill="url(#bg3)"/>
  <ellipse cx="320" cy="430" rx="200" ry="45" fill="#050814"/>
  <g filter="url(#shadow)">
    <rect x="240" y="140" width="160" height="200" rx="18" fill="url(#podiumCore)" opacity="0.95"/>
    <rect x="260" y="160" width="120" height="160" rx="14" fill="#050b22" stroke="#ffe7f0" stroke-width="2"/>
    <rect x="280" y="180" width="80" height="50" rx="10" fill="#142042" stroke="#ff7693" stroke-width="4"/>
    <rect x="300" y="250" width="40" height="60" rx="8" fill="#142042" stroke="#43cea2" stroke-width="3"/>
    <path d="M240 140 L220 170 L220 360 L240 340 Z" fill="#a80e4a" opacity="0.8"/>
    <path d="M400 140 L420 170 L420 360 L400 340 Z" fill="#0f7f87" opacity="0.8"/>
  </g>
  <g opacity="0.4" fill="url(#podiumGlow)">
    <rect x="80" y="60" width="80" height="6" rx="3"/>
    <rect x="180" y="40" width="120" height="6" rx="3"/>
    <rect x="360" y="70" width="140" height="6" rx="3"/>
    <rect x="520" y="50" width="40" height="6" rx="3"/>
  </g>
  <g fill="#ffe7f0" opacity="0.7">
    <circle cx="120" cy="90" r="3"/>
    <circle cx="520" cy="110" r="4"/>
    <circle cx="460" cy="200" r="2"/>
    <circle cx="160" cy="210" r="2"/>
  </g>
</svg>
