<svg width="640" height="480" viewBox="0 0 640 480" xmlns="http://www.w3.org/2000/svg">
  <defs>
    <linearGradient id="bg-cube" x1="0%" y1="100%" x2="100%" y2="0%">
      <stop offset="0%" stop-color="#050915"/>
      <stop offset="100%" stop-color="#091b2f"/>
    </linearGradient>
    <linearGradient id="cube-face" x1="0%" y1="0%" x2="100%" y2="100%">
      <stop offset="0%" stop-color="#8efcff"/>
      <stop offset="100%" stop-color="#3f89ff"/>
    </linearGradient>
    <linearGradient id="cube-top" x1="0%" y1="0%" x2="100%" y2="0%">
      <stop offset="0%" stop-color="#6ef7b1"/>
      <stop offset="100%" stop-color="#b28bff"/>
    </linearGradient>
  </defs>
  <rect width="640" height="480" fill="url(#bg-cube)"/>
  <ellipse cx="320" cy="420" rx="230" ry="50" fill="#02060b" opacity="0.65"/>
  <g transform="translate(140,120)">
    <g opacity="0.15" fill="#6ef7b1">
      <rect x="40" y="-20" width="340" height="6"/>
      <rect x="40" y="30" width="340" height="6"/>
      <rect x="40" y="80" width="340" height="6"/>
      <rect x="40" y="130" width="340" height="6"/>
      <rect x="40" y="180" width="340" height="6"/>
    </g>
    <g>
      <g transform="translate(0,120)">
        <path d="M60 40 L160 0 L240 40 L240 160 L60 220 Z" fill="#051127" stroke="#6ef7b1" stroke-width="2"/>
        <path d="M60 40 L160 0 L160 120 L60 160 Z" fill="url(#cube-top)" opacity="0.8"/>
        <path d="M160 0 L240 40 L240 160 L160 120 Z" fill="#082349" opacity="0.9"/>
      </g>
      <g transform="translate(160,30)">
        <path d="M60 40 L160 0 L240 40 L240 190 L60 250 Z" fill="#051127" stroke="#8efcff" stroke-width="2"/>
        <path d="M60 40 L160 0 L160 130 L60 180 Z" fill="url(#cube-face)"/>
        <path d="M160 0 L240 40 L240 190 L160 130 Z" fill="#07284c"/>
        <path d="M60 180 L160 130 L240 190 L140 240 Z" fill="#0a3563" opacity="0.9"/>
      </g>
    </g>
  </g>
  <g fill="#8efcff" opacity="0.6">
    <circle cx="520" cy="120" r="4"/>
    <circle cx="120" cy="90" r="3"/>
    <circle cx="540" cy="260" r="2"/>
  </g>
</svg>
